<svg xmlns="http://www.w3.org/2000/svg" width="36" height="36" viewBox="0 0 36 36">
    <g fill="none" fill-rule="nonzero">
        <circle cx="18" cy="18" r="18" fill="#FFDC64"/>
        <circle cx="18" cy="18" r="14" fill="#FFF082"/>
        <path fill="#E7B452" d="M22.65 16.569a3.95 3.95 0 0 0 1.112-2.746c0-2.197-1.805-3.984-4.024-3.984h-.31v-.92A.924.924 0 0 0 18.5 8a.924.924 0 0 0-.929.92v.919h-1.238v-.92A.924.924 0 0 0 15.405 8a.924.924 0 0 0-.929.92v.919H12.93a.924.924 0 0 0-.929.919c0 .508.416.92.929.92h.31v11.645h-.31a.924.924 0 0 0-.929.919c0 .508.416.92.929.92h1.547v.919c0 .507.416.919.929.919a.924.924 0 0 0 .928-.92v-.919h1.238v.92c0 .507.416.919.929.919a.924.924 0 0 0 .929-.92v-.919h.928c2.56 0 4.643-2.062 4.643-4.597 0-1.709-.947-3.203-2.35-3.995zm-2.912-4.892c1.195 0 2.167.963 2.167 2.146 0 1.182-.972 2.145-2.167 2.145h-4.643v-4.29h4.643zm.62 11.646h-5.263v-5.516h5.263c1.535 0 2.785 1.237 2.785 2.758 0 1.52-1.25 2.758-2.786 2.758z"/>
    </g>
</svg>
