<?xml version="1.0" encoding="utf-8"?>
<!-- Generator: Adobe Illustrator 18.0.0, SVG Export Plug-In . SVG Version: 6.00 Build 0)  -->
<!DOCTYPE svg PUBLIC "-//W3C//DTD SVG 1.1//EN" "http://www.w3.org/Graphics/SVG/1.1/DTD/svg11.dtd">
<svg version="1.1" id="Layer_1" xmlns="http://www.w3.org/2000/svg" xmlns:xlink="http://www.w3.org/1999/xlink" x="0px" y="0px"
	 viewBox="0 0 93 34.4" enable-background="new 0 0 93 34.4" xml:space="preserve">
<g>
	<g>
		<path fill="#2B74A5" d="M6.1,4v14.6c3.6-4.8,5.4-6.9,7.5-8.9c1.5-1.4,2.9-1.6,4.9-1.6h3.5v0.2c-1.7,1.5-7.4,7.9-9.9,11.1
			c1.9,2.4,3.9,4.9,6,7.1c2.2,2.2,3.2,2.7,4.7,3.2c-0.6,1.9-1.6,3-4.1,3c-1.4,0-2.9-0.6-4-1.7c-3.1-3.2-5.8-6.8-8.5-10.4v12H4
			c-2.7,0-4-1.5-4-4.3V0h1.9C4.9,0,6.1,1.7,6.1,4z"/>
	</g>
	<g>
		<path fill="#2B74A5" d="M70.2,14.1c-0.9-0.4-1.9-0.7-3.5-0.7c-2.7,0-4.2,1.5-4.2,5.2v14.1h-1.7c-2.7,0-4.4-1.4-4.4-3.9V17.5
			c0-4.9,2.6-9.6,9-9.6c3.8,0,5.1,2.1,5.1,4v2.2H70.2z"/>
		<path fill="#2B74A5" d="M83.8,33.1h-1.2c-5.8,0-9.8-3.3-9.8-7.8c0-4.4,3.2-7.7,12.2-7.7h2.1v-0.3c0-3.4-1.6-4.5-5.3-4.5
			c-4.4,0-6.8,1.7-7.8,2.8h-0.2v-1.9c0-2.7,2.4-6,8.9-6c5.4,0,10.3,2.5,10.3,11v5.6C93,29.5,89.2,33.1,83.8,33.1z M87.1,22h-2.2
			c-4.6,0-5.9,1.1-5.9,3.1c0,1.9,1.5,3,4.2,3c2.6,0,3.9-1.3,3.9-3.8V22z"/>
	</g>
	<g>
		<path fill="#2B74A5" d="M27.9,19.3c0,0.1,0,0.1,0,0.2c0,0,0,0.1,0,0.1c0,0,0,0,0.1,0C28,19.4,27.9,19.4,27.9,19.3z"/>
		<path fill="#2B74A5" d="M27.2,18.9L27.2,18.9C27.2,19,27.2,19,27.2,18.9C27.2,19,27.2,19,27.2,18.9z"/>
		<path fill="#2B74A5" d="M28,19.5c0.2,0,0.5-0.1,0.7,0.1c0,0.1,0,0.4,0,0.5c0.1,0.1,0.3,0,0.4,0c0,0.1,0,0.2,0.1,0.2
			c0.1,0.1,0.2,0,0.2,0c0.1-0.1,0.1-0.1,0.1-0.3c-0.2-0.1-0.3-0.3-0.5-0.5c-0.1-0.2-0.2-0.4-0.3-0.5c-0.1-0.1-0.2-0.2-0.3-0.2
			c-0.1,0-0.1,0.1-0.2,0.2C28.2,19.2,28,19.3,28,19.5z"/>
		<path fill="#2B74A5" d="M27.6,18.3l-0.1,0.8c0.1,0.1,0.3,0.2,0.4,0.2C27.9,18.9,27.8,18.6,27.6,18.3z"/>
		<path fill="#2B74A5" d="M26.8,22.6c0,0,0,0,0-0.2C26.8,22.5,26.8,22.6,26.8,22.6C26.8,22.6,26.8,22.6,26.8,22.6
			c-0.1-0.5-0.2-1.1-0.3-1.8c0-0.1-0.1-0.2-0.1-0.2c0.1,1.6,0.5,3.1,1.2,4.2c-0.1-0.2-0.2-0.4-0.3-0.6c-0.1-0.2-0.2-0.4-0.2-0.5
			C27,23.4,26.9,23.1,26.8,22.6z"/>
		<path fill="#2B74A5" d="M26.2,20.5c0-0.1,0-0.1,0-0.2C26.2,20.5,26.2,20.5,26.2,20.5z"/>
		<path fill="#2B74A5" d="M45.9,26.2c0.1-0.2,0.2-0.4,0.3-0.6c0.1-0.2,0.2-0.4,0.2-0.6c0.1-0.2,0.1-0.4,0.1-0.6l0.1-0.3
			c0-0.1,0-0.2,0-0.3c0,0.1,0,0.2-0.1,0.3l-0.1,0.3c-0.1,0.2-0.1,0.4-0.2,0.6c-0.1,0.2-0.2,0.4-0.3,0.5c-0.1,0.2-0.2,0.4-0.3,0.5
			c-0.2,0.3-0.4,0.7-0.6,1c-0.1,0.2-0.2,0.3-0.3,0.4c-0.1,0.1-0.2,0.3-0.3,0.4c0.1-0.1,0.3-0.2,0.4-0.4l0.4-0.4
			C45.5,26.9,45.7,26.5,45.9,26.2z"/>
		<path fill="#2B74A5" d="M46.6,20.3c0,0.2,0,0.5,0,0.7c0,0.1,0,0.2,0,0.3c0,0.1,0,0.2,0,0.3c0,0.2,0,0.4,0,0.6c0,0.2,0,0.4,0,0.6
			l0.1-0.6c0-0.2,0-0.4,0-0.6c0-0.4,0-0.8,0-1.2C46.6,20.4,46.6,20.4,46.6,20.3z"/>
		<path fill="#2B74A5" d="M46.9,21.4c-0.1,0.5,0,0.9-0.1,1.3c0,0.2,0,0.4,0,0.6c0,0.2,0,0.4-0.1,0.6c0.1-0.2,0.1-0.4,0.2-0.7
			c0-0.2,0-0.4,0.1-0.7c0-0.1,0-0.2,0-0.3c0-0.1,0-0.2,0-0.3C46.9,21.8,46.9,21.6,46.9,21.4z"/>
		<path fill="#2B74A5" d="M31.3,32.3c-0.4-0.2-0.7-0.3-1-0.5c-0.1-0.1-0.2-0.1-0.3-0.2c-0.1-0.1-0.2-0.1-0.2-0.2
			c-0.1,0-0.3-0.1-0.6-0.2c0,0,0.1,0.1,0.1,0.1c0.2,0.1,0.4,0.3,0.6,0.4c0.2,0.1,0.4,0.2,0.6,0.3c0.2,0.1,0.4,0.2,0.6,0.3
			c0.2,0.1,0.4,0.2,0.6,0.3c0.2,0.1,0.4,0.1,0.5,0.2c0.2,0,0.3,0.1,0.5,0.1l-0.4-0.2c-0.1-0.1-0.3-0.1-0.4-0.2
			C31.8,32.5,31.5,32.4,31.3,32.3z"/>
		<path fill="#2B74A5" d="M29.8,31.5C30.9,31.8,28.8,30.8,29.8,31.5L29.8,31.5z"/>
		<path fill="#2B74A5" d="M35.4,31.3l0.1,0c0.1,0,0.2,0,0.3,0C35.7,31.4,35.6,31.4,35.4,31.3z"/>
		<path fill="#2B74A5" d="M44.7,30.6c-0.6,0.4-1.2,0.8-1.8,1.1c1.3-0.6,2.5-1.5,3.2-2.5c-0.1,0.1-0.3,0.2-0.4,0.3
			C45.5,29.9,45.1,30.3,44.7,30.6z"/>
		<path fill="#2B74A5" d="M30.7,29.6c1.5,1,3.2,1.6,4.9,1.8c1.7,0.3,3.4,0.2,4.9-0.3c1.5-0.5,2.8-1.3,3.8-2.3
			c0.8-0.9,1.9-2.2,2.5-3.7c0.1-0.2,0.1-0.4,0.2-0.6c0.1-0.2,0.1-0.4,0.1-0.6c0-0.2,0.1-0.4,0.1-0.6c0-0.2,0-0.4,0.1-0.6
			c0-0.4,0-0.7,0-1.1c0-0.3-0.1-0.6-0.2-0.9c0,0.2,0,0.5-0.1,0.7c-0.1-0.3-0.1-0.6-0.2-0.9c0-0.1,0-0.2,0-0.3l0-0.3
			c0-0.2,0-0.4-0.1-0.6l-0.1-0.6L46.1,18c0-0.1-0.1-0.2-0.1-0.3l-0.1-0.3c-0.1-0.2-0.2-0.4-0.3-0.6c-0.1-0.2-0.2-0.4-0.3-0.5
			c-0.1-0.2-0.2-0.3-0.3-0.5l-0.2-0.3c-0.1-0.1-0.1-0.2-0.2-0.2c-0.1-0.2-0.3-0.3-0.4-0.5c-0.1-0.1-0.3-0.3-0.4-0.4
			c0,0-0.1-0.1-0.1-0.1l-0.1-0.1L43.3,14l-0.2-0.2c-0.1-0.1-0.2-0.1-0.3-0.2c-0.2-0.1-0.3-0.2-0.5-0.3c-0.2-0.1-0.4-0.2-0.5-0.3
			L41.6,13l-0.1-0.1l-0.3-0.1c-0.1,0-0.2-0.1-0.3-0.1c-0.1,0-0.2,0-0.3,0c-0.1,0-0.2,0-0.3,0c-0.1,0-0.1,0-0.2,0c-0.1,0-0.1,0-0.2,0
			c-0.2,0-0.5-0.1-0.7-0.1c-0.2,0-0.5,0-0.7-0.1c0,0,0,0,0,0c-1.9-0.1-3.8,0.6-5.2,1.9c-0.7,0.6-1.3,1.2-1.8,1.9
			c0,0.1-0.1,0.1-0.1,0.1c0,0-0.1,0-0.1,0.1c-0.1,0-0.2,0-0.3,0.1c-0.1,0.1-0.2,0.1-0.3,0.2c-0.1,0.1-0.2,0.2-0.2,0.2
			c-0.1,0.2-0.3,0.3-0.4,0.5c-0.1,0.2-0.2,0.4-0.4,0.6c-0.1,0.2-0.2,0.4-0.3,0.7c0,0-0.1,0-0.2,0c0,0.1,0,0.2,0,0.2
			c0,0.1,0,0.1,0,0.2c-0.4-0.3-0.5-0.9-0.6-1.2c-0.2-0.3-0.3-0.4-0.8,0.4l0,0c0-0.1,0-0.2,0-0.3c0,0,0,0,0,0c0,0,0,0,0,0
			c0-0.2,0-0.4-0.1-0.5c0-0.2-0.1-0.3-0.1-0.5c-0.1,0.2-0.2,0.5-0.2,0.8c-0.1-0.1-0.2-0.1-0.3-0.1c0,0,0-0.1,0-0.1
			c0-0.1,0.1-0.2,0.1-0.2c0-0.1-0.1-0.1-0.1-0.1c0-0.4,0-0.9,0.1-1.3c0.1-0.4,0.1-0.6-0.1-0.6c-0.1,0.1-0.2,0.2-0.3,0.5
			c-0.1,0.2-0.1,0.5-0.2,0.9c0,0-0.1,0.1-0.1,0.1c0.2-0.8-0.4-0.2-0.3-0.7c0.1-0.2,0.1-0.3,0.2-0.5l0.2-0.5l0.2-0.5
			c0.1-0.2,0.2-0.3,0.3-0.5c0.4-0.6,0.8-1.2,1.2-1.7c0.2-0.3,0.5-0.5,0.7-0.8c0.2-0.2,0.5-0.5,0.7-0.7c1-0.9,2.1-1.6,3.4-2.3
			c0.1-0.1,0.2-0.1,0.4-0.2c0.2-0.1,0.3-0.1,0.5-0.2c0.2,0,0.3-0.1,0.5-0.1c0.3-0.1,0.7-0.2,1-0.2c0.3-0.1,0.7-0.1,1-0.1
			c0.3,0,0.7,0,1,0c-0.1,0-0.2,0.1-0.3,0.1l0.4,0c0.1,0,0.3,0,0.4,0l0.8,0.1c0.3,0,0.5,0.1,0.8,0.1c0.3,0,0.6,0,0.8,0.1
			c1.4,0.2,2.7,0.6,3.9,1.3c1.2,0.7,2.4,1.6,3.4,2.7c2,2.4,3.1,5.5,3.1,8.7l0-0.5l-0.1-0.5c0-0.3-0.1-0.7-0.1-1
			c-0.1-0.3-0.1-0.6-0.2-1c-0.1-0.3-0.2-0.6-0.3-1l-0.1-0.4c0-0.1-0.1-0.3-0.1-0.4c-0.1-0.3-0.2-0.6-0.3-0.8
			c0.1,0.3,0.2,0.6,0.3,0.8c0,0.1,0.1,0.3,0.1,0.4l0.1,0.4c0.1,0.3,0.1,0.6,0.2,0.8c0,0.3,0.1,0.6,0.1,0.9c0,0.1,0,0.3,0.1,0.4
			c0,0.1,0,0.3,0,0.4c0,0.3,0,0.6,0.1,0.8c0,0.3,0,0.5,0,0.8c0,0.3,0,0.5,0,0.8c0,0.3,0,0.5,0,0.8c0,0.1,0,0.2,0,0.4
			c0,0.1,0,0.2,0,0.4c-0.1,0.2-0.1,0.2-0.2,0.4l-0.1,0.5c0,0.2-0.1,0.3-0.2,0.5c-0.1,0.3-0.2,0.6-0.4,0.9c-0.1,0.3-0.3,0.6-0.4,0.9
			c0,0.1-0.1,0.1-0.1,0.2c0,0.1-0.1,0.1-0.1,0.2c-0.1,0.1-0.1,0.3-0.2,0.4c0,0-0.3,0.5-0.1,0.4c-0.6,1-1.5,2-2.4,2.8
			c-0.1,0.1-0.2,0.2-0.3,0.3L46,31.1c-0.2,0.2-0.4,0.4-0.5,0.6c-0.2,0.2-0.4,0.3-0.7,0.5c-0.2,0.1-0.4,0.3-0.7,0.4l-0.7,0.4
			c-0.2,0.1-0.5,0.3-0.7,0.3c-0.5,0.2-1,0.4-1.5,0.5c-0.3,0.1-0.5,0.2-0.8,0.2c-0.3,0-0.5,0.1-0.8,0.1c-1.1,0.2-2.2,0.2-3.3,0.2
			c-0.3,0-0.6-0.1-0.8-0.1L35,34.2c-0.1,0-0.3,0-0.4-0.1c-0.6-0.1-1.1-0.2-1.7-0.5c-1.1-0.4-2.3-1.1-3.2-1.7c1.5,0.9,3.1,1.6,4.9,2
			c1.7,0.5,3.4,0.5,4.7,0.2c0.3-0.1,0.6-0.2,0.9-0.2c-1.9,0.4-3.8,0.4-5.6,0c-0.2-0.1-0.5-0.2-0.7-0.2c-0.1,0-0.2-0.1-0.4-0.1
			l-0.4-0.1l-0.7-0.3c-0.2-0.1-0.5-0.2-0.7-0.3c0,0,0,0,0.1,0l0.5,0.2l0.6,0.2l0.6,0.2c0.2,0.1,0.4,0.1,0.6,0.1
			c0.2,0.1,0.4,0.1,0.5,0.2l0.3,0.1c0.1,0,0.2,0,0.3,0.1c0.4,0.1,0.7,0.1,1.1,0.2c0.7,0,1.4,0.1,2,0c0.2,0,0.3,0,0.5-0.1
			c0.3,0,0.6-0.1,0.9-0.2c-0.6,0.1-1.1,0.1-1.7,0.2c-0.3,0-0.6,0-0.9,0c-0.3,0-0.6,0-0.9,0c-0.4,0-0.7-0.1-1.1-0.1
			c-0.2,0-0.4-0.1-0.5-0.1L34,33.5c-0.4-0.1-0.8-0.3-1.3-0.5c0,0,0.1,0,0.1,0c0.2,0.1,0.6,0.1,0.8,0c0.3-0.1,0.4-0.2,0.2-0.3
			c-0.7-0.2-1.4-0.5-2.1-0.9c-0.4-0.2-0.7-0.4-1-0.6c-0.2-0.1-0.3-0.2-0.5-0.3c-0.1-0.1-0.3-0.2-0.4-0.3c-0.6-0.4-1-0.8-1.3-1.1
			c-0.2-0.1-0.3-0.3-0.3-0.4c-0.1-0.1-0.1-0.1-0.1-0.1c0,0,0,0,0.1,0.1c0.1,0.1,0.2,0.2,0.4,0.3c0.3,0.3,0.8,0.7,1.3,1
			c0.1,0.1,0.2,0.2,0.4,0.2c0.1,0.1,0.2,0.2,0.4,0.2c0.2,0.1,0.5,0.3,0.6,0.4c0.1,0,0.2,0.1,0.3,0.1c0.1,0,0.1,0.1,0.2,0.1
			c0.1,0,0.2,0.1,0.1,0c-0.1-0.1-0.2-0.1-0.3-0.2l-0.3-0.2c0.2,0.1,0.5,0.2,0.7,0.3c0.2,0.1,0.5,0.2,0.8,0.4
			c0.3,0.1,0.5,0.2,0.7,0.2c0.2,0,0.3,0.1,0.5,0.1c0.2,0,0.3,0.1,0.5,0.1c0.2,0,0.3,0.1,0.5,0.1c0.2,0,0.3,0.1,0.5,0.1
			c0.3,0,0.7,0.1,1,0.1c0.3,0,0.7,0,1.1,0c0.2,0,0.4-0.1,0.7-0.1c0.2,0,0.5-0.1,0.7-0.1c0.2-0.1,0.5-0.2,0.7-0.2
			c0.1,0,0.2-0.1,0.4-0.1c0.1,0,0.2-0.1,0.4-0.2c0-0.1,0.5-0.2,0.3-0.2c0.5-0.1,0.9-0.3,1.3-0.5c0.2-0.1,0.4-0.2,0.5-0.3
			c0.1-0.1,0.2-0.2,0.3-0.3l0.1,0c0.1,0,0.1-0.1,0.2-0.1c0.3-0.2,0.6-0.4,0.9-0.6c0.3-0.2,0.5-0.4,0.7-0.7c0.4-0.5,0.8-0.9,1.1-1.5
			l0.2-0.3c0.1-0.1,0.1-0.2,0.2-0.3c0.1-0.2,0.3-0.4,0.4-0.6c-0.2,0.3-0.5,0.6-0.6,0.9c-0.1,0.1-0.1,0.2-0.2,0.3
			c-0.1,0.1-0.2,0.2-0.3,0.3c-0.1,0.1-0.2,0.2-0.3,0.3c-0.2,0.2-0.4,0.4-0.6,0.6c-0.2,0.2-0.4,0.4-0.6,0.6c-0.1,0-0.1,0.1-0.2,0.1
			l-0.2,0.1l-0.3,0.3c-0.1,0.1-0.2,0.2-0.3,0.3c-0.1,0-0.2,0.1-0.2,0.1c0,0,0,0.1,0,0.1c-0.2,0.1-0.5,0.3-0.7,0.4
			c-0.3,0.1-0.5,0.2-0.8,0.4c-0.1,0.1-0.3,0.1-0.4,0.2c-0.1,0-0.3,0.1-0.4,0.1c-0.1,0-0.3,0.1-0.4,0.1c-0.1,0-0.2,0.1-0.4,0.1
			c-1.8,0.5-3.9,0.3-5.6-0.4c0.2,0.1,0.5,0.1,0.7,0.1c0.2,0,0.5,0.1,0.7,0.1c0.2,0,0.5,0,0.7,0c0.2,0,0.5,0,0.7,0
			c-1.1,0-2.2-0.2-3.2-0.5c-0.2-0.1-0.3-0.1-0.4-0.2l-0.9-0.4c0.3,0.1,0.5,0.3,0.8,0.4c-0.3-0.1-0.6-0.2-0.9-0.3
			c-0.3-0.1-0.6-0.3-0.8-0.4c-0.1-0.1-0.2-0.1-0.3-0.2L30.7,30l-0.5-0.4c-0.3-0.3-0.7-0.5-1-0.8l-0.5-0.5c-0.1-0.2-0.3-0.3-0.4-0.5
			l-0.4-0.5c-0.1-0.1-0.1-0.2-0.2-0.3l-0.2-0.3c-1-1.5-1.6-3.2-1.7-4.9c0,0.1,0.1,0.1,0.1,0.2c0.2,1.6,0.9,3.2,1.7,4.3
			c-0.3-0.4-0.4-0.8-0.6-1.1c-0.2-0.3-0.3-0.7-0.5-1.1c0,0,0,0,0.1,0c-0.1-0.3-0.2-0.6-0.3-0.9c0-0.2-0.1-0.3-0.1-0.5
			c0-0.2-0.1-0.3-0.1-0.5c0.1,0.2,0.2,0.4,0.4,0.6c0.1,0.2,0.1,0.3,0.2,0.6c0,0.1,0.1,0.2,0.1,0.3c0,0.1,0.1,0.2,0.1,0.3
			c0.4,1,0.9,1.9,1.5,2.7l0.5,0.6c0.2,0.2,0.3,0.4,0.5,0.6l0.3,0.3c0.1,0.1,0.2,0.2,0.3,0.3c0.2,0.2,0.4,0.3,0.6,0.5
			c1.4,1.2,3.1,2,4.9,2.3C33.6,31.1,32.1,30.5,30.7,29.6z M29.1,15.5c0.1-0.1,0.1-0.3,0.1-0.4c0,0,0,0-0.1,0
			C29.1,15.2,29.1,15.3,29.1,15.5z M31.2,12.9c-0.8,0.5-1.6,1.7-2,2.8c0,0,0,0,0,0C29.7,14.9,30.4,13.8,31.2,12.9z M35,12.2L35,12.2
			L35,12.2L35,12.2z M48.2,19c-0.1-0.1-0.1-0.3-0.2-0.5c-0.1-0.2-0.1-0.3-0.2-0.5c-0.1-0.2-0.1-0.3-0.2-0.5
			c-0.1-0.2-0.1-0.3-0.2-0.5c-0.3-0.7-0.6-1.3-1.1-1.9c-0.1-0.2-0.3-0.4-0.5-0.5c-0.2-0.2-0.4-0.3-0.6-0.6c-0.3-0.3-0.5-0.4-0.7-0.6
			c-0.1-0.1-0.2-0.2-0.3-0.2c-0.1-0.1-0.2-0.1-0.3-0.2l0.2,0.4c-0.2-0.2-0.3-0.3-0.5-0.4c-0.2-0.1-0.4-0.2-0.5-0.3
			c-0.3-0.2-0.7-0.3-1.1-0.6c0,0-0.2,0.1-0.3,0c-0.3-0.1-0.6-0.3-0.9-0.4c-0.3-0.1-0.6-0.2-0.9-0.2c-0.3,0-0.6-0.1-1-0.1
			c-0.3,0-0.6,0-0.9,0c-0.1,0-0.4,0.2-0.6,0.2c-0.3,0.1-0.6,0.1-0.9,0.1c0,0,0,0,0,0c0.2,0,0.5,0,0.7-0.1c0.7-0.1,1.7-0.2,2.4-0.1
			c1.9,0.3,3.7,1.2,5.2,2.5c0.2,0.1,0.3,0.3,0.5,0.4l0.2,0.2c0.1,0.1,0.1,0.2,0.2,0.2c0.2,0.2,0.4,0.5,0.6,0.8
			c0.1,0.1,0.2,0.3,0.3,0.4c0.1,0.1,0.2,0.3,0.2,0.5c0.1,0.2,0.2,0.3,0.2,0.4c0.1,0.1,0.1,0.3,0.2,0.4c0.1,0.1,0.1,0.3,0.2,0.4
			c0,0.1,0.1,0.1,0.1,0.2c0,0.1,0.1,0.1,0.1,0.2C48,18.6,48.1,18.9,48.2,19z M50.6,20.8c0-0.1,0-0.2,0-0.4c0-0.1,0-0.2,0-0.4
			c0-0.2-0.1-0.5-0.1-0.8c0-0.3-0.1-0.5-0.1-0.8c-0.1-0.2-0.1-0.5-0.2-0.7c-0.1-0.2-0.1-0.5-0.2-0.7c-0.1-0.2-0.1-0.5-0.2-0.7
			c-0.2-0.5-0.3-0.9-0.5-1.3c-0.3-0.7-1.1-1.9-1.9-2.7c-0.2-0.2-0.4-0.3-0.6-0.5c-0.2-0.1-0.4-0.2-0.5-0.3c-0.3-0.1-0.5-0.1-0.5,0.2
			c0.1,0,0.3,0.1,0.4,0.1c0.2,0.1,0.3,0.2,0.5,0.3c0.2,0.1,0.4,0.3,0.6,0.5c0.2,0.2,0.4,0.4,0.6,0.6c0.7,0.9,1.4,2.2,1.8,3.4
			C50.2,19.2,50,21.4,50.6,20.8z M42.1,33.2c0.4-0.2,0.8-0.3,1.1-0.5c0.2-0.1,0.4-0.2,0.6-0.3c0.1,0,0.2-0.1,0.3-0.1
			c0.1-0.1,0.2-0.1,0.3-0.2c-0.3,0.2-0.7,0.4-1.1,0.6C42.9,32.9,42.5,33.1,42.1,33.2z M47.2,27.2c-0.1,0.2-0.3,0.5-0.4,0.7
			c-0.2,0.2-0.3,0.5-0.5,0.7c-0.2,0.2-0.4,0.4-0.6,0.7c-0.2,0.2-0.4,0.4-0.6,0.6c-0.9,0.8-1.9,1.4-3,1.9c-0.4,0.2-0.8,0.4-1.3,0.5
			l-0.7,0.2c-0.2,0-0.5,0.1-0.7,0.1c-0.2,0-0.4,0.1-0.7,0.1c-0.2,0-0.4,0-0.7,0.1c-0.2,0-0.4,0.1-0.6,0.1c-0.2,0-0.4,0-0.6,0.1
			l0,0.1l0.2,0c0.2,0,0.3,0,0.5,0.1c0.1,0,0.3,0,0.4,0c0.3,0,0.5,0,0.8,0c0,0-0.1,0-0.1,0c0.1,0,0.1,0,0.2,0c0.4,0,0.7-0.1,1.2-0.2
			c0.2,0,0.4-0.1,0.6-0.2c0.3-0.1,0.6-0.2,0.8-0.2l0.8-0.3c0.1-0.1,0.3-0.1,0.4-0.2l0.4-0.2c0.3-0.1,0.5-0.3,0.7-0.4
			c0.5-0.3,0.9-0.6,1.3-1c0.2-0.2,0.4-0.3,0.6-0.5c0.2-0.2,0.3-0.4,0.5-0.6c0.2-0.2,0.4-0.5,0.5-0.7c0.2-0.2,0.3-0.5,0.4-0.7
			c0.1-0.3,0.3-0.5,0.4-0.8c0.1-0.3,0.2-0.5,0.3-0.8c-0.1,0.1-0.2,0.3-0.3,0.5c-0.1,0.1-0.1,0.2-0.2,0.3
			C47.3,27.1,47.3,27.2,47.2,27.2z"/>
		<path fill="#2B74A5" d="M33.3,31.2c-0.7-0.2-1.4-0.5-2-0.9c-0.3-0.1-0.5-0.3-0.7-0.4c-0.2-0.2-0.5-0.3-0.7-0.5
			c-1.1-0.8-2.1-2-2.8-3.4c-0.7-1.4-1.2-2.9-1.3-4.4c-0.1-0.1-0.2-0.1-0.3,0c0.1,1.7,0.6,3.3,1.4,4.8c0.8,1.5,1.9,2.7,3.2,3.8l0.1,0
			c0.2,0.1,0.3,0.2,0.5,0.3c0.2,0.1,0.4,0.2,0.6,0.3c0.2,0.1,0.4,0.2,0.6,0.3c0.2,0.1,0.4,0.2,0.7,0.3c0.4,0.2,0.9,0.4,1.4,0.5
			l0.2,0.1l0.2,0c0.1,0,0.2,0,0.3,0.1c0.2,0,0.5,0.1,0.7,0.1c1.8,0.1,3.5,0,5.1-0.6C37.9,32.3,35.5,32.2,33.3,31.2z"/>
		<path fill="#2B74A5" d="M46.5,22.9c0,0.3-0.1,0.5-0.2,0.8L46.3,24l-0.1,0.4c-0.5,1.4-1.2,2.6-2.2,3.7c0.8-0.7,1.5-1.5,2-2.4
			C46.4,24.7,46.5,23.8,46.5,22.9z"/>
		<path fill="#2B74A5" d="M43.1,28.9c0.1-0.1,0.2-0.1,0.2-0.2l0.2-0.2c0.1-0.1,0.3-0.3,0.4-0.4c-1.2,1-2.6,1.8-4.1,2.3
			c-2.5,0.8-5.4,0.6-7.9-0.7c-0.1-0.1-0.3-0.1-0.4-0.2c-0.1-0.1-0.3-0.2-0.4-0.3c2.1,1.5,4.7,2.3,7.2,2c1.2-0.1,2.4-0.5,3.4-1
			c1-0.5,1.9-1.3,2.6-2.1c0-0.1,0.1-0.1,0.2-0.2c-0.3,0.4-0.7,0.7-1.1,1l-0.6,0.4c-0.2,0.1-0.4,0.3-0.6,0.4l-0.3,0.2L41.7,30
			L41.5,30l-0.7,0.3c-0.2,0.1-0.5,0.2-0.7,0.2l-0.4,0.1l-0.4,0.1C40.7,30.4,42,29.8,43.1,28.9z"/>
		<path fill="#2B74A5" d="M34,31.4c-0.2-0.1-0.3-0.1-0.5-0.2c-0.2-0.1-0.4-0.1-0.5-0.2c0.1,0.1,0.2,0.1,0.3,0.1
			C33.5,31.3,33.7,31.3,34,31.4z"/>
		<path fill="#2B74A5" d="M38.8,33.1C38.8,33.1,38.8,33.1,38.8,33.1c0.4,0,0.6-0.1,0.9-0.1c0.1,0,0.3-0.1,0.4-0.1
			c0.1,0,0.3-0.1,0.4-0.1c0.4-0.1,0.8-0.3,1.2-0.4c0.4-0.2,0.8-0.3,1.2-0.6C41.5,32.4,40,32.8,38.8,33.1z"/>
		<path fill="#2B74A5" d="M44.2,32.6c0.2-0.1,0.5-0.3,0.7-0.4c0.1-0.1,0.2-0.2,0.3-0.3c-0.2,0.1-0.3,0.2-0.5,0.3
			c0,0-0.1,0.1-0.2,0.2C44.3,32.5,44.3,32.6,44.2,32.6C44.2,32.6,44.2,32.6,44.2,32.6z"/>
		<path fill="#2B74A5" d="M50.6,23.4c-0.6,3.4-2.5,6.3-5.1,8.2c-0.1,0.1-0.2,0.2-0.3,0.3c1.9-1.1,3.4-2.8,4.3-4.7
			c0.1-0.2,0.2-0.4,0.2-0.6c0.1-0.2,0.1-0.5,0.2-0.6c0.8-1.7,1-3.5,1-5.2C50.9,21.7,50.8,22.5,50.6,23.4L50.6,23.4z"/>
	</g>
</g>
</svg>
