<?xml version="1.0" encoding="UTF-8" standalone="no"?>
<svg
   xmlns:dc="http://purl.org/dc/elements/1.1/"
   xmlns:cc="http://creativecommons.org/ns#"
   xmlns:rdf="http://www.w3.org/1999/02/22-rdf-syntax-ns#"
   xmlns:svg="http://www.w3.org/2000/svg"
   xmlns="http://www.w3.org/2000/svg"
   xmlns:sodipodi="http://sodipodi.sourceforge.net/DTD/sodipodi-0.dtd"
   xmlns:inkscape="http://www.inkscape.org/namespaces/inkscape"
   width="709pt"
   height="180pt"
   viewBox="0 0 709 371"
   version="1.1"
   id="svg3069"
   inkscape:version="0.48.4 r9939"
   sodipodi:docname="logo.svg">
  <metadata
     id="metadata11">
    <rdf:RDF>
      <cc:Work
         rdf:about="">
        <dc:format>image/svg+xml</dc:format>
        <dc:type
           rdf:resource="http://purl.org/dc/dcmitype/StillImage" />
      </cc:Work>
    </rdf:RDF>
  </metadata>
  <sodipodi:namedview
     pagecolor="#ffffff"
     bordercolor="#666666"
     borderopacity="1"
     objecttolerance="10"
     gridtolerance="10"
     guidetolerance="10"
     inkscape:pageopacity="0"
     inkscape:pageshadow="2"
     inkscape:window-width="1920"
     inkscape:window-height="1025"
     id="namedview9"
     showgrid="false"
     inkscape:zoom="0.71763047"
     inkscape:cx="413.19163"
     inkscape:cy="130.03195"
     inkscape:window-x="-3"
     inkscape:window-y="-3"
     inkscape:window-maximized="1"
     inkscape:current-layer="svg3069" />
  <defs
     id="defs3111" />
  <path
     style="fill:#8dc63f"
     d="m 381.73867,11.845502 c -16.61527,-1.213527 -26.43559,6.588759 -3.91636,8.774274 28.62752,-0.346201 57.24396,3.058731 85.64505,6.023102 29.34185,8.000143 61.32842,5.623685 88.86936,19.563837 30.05353,0.304142 58.83815,11.125179 87.81077,18.086376 36.7558,11.516542 74.39453,20.402621 109.58594,36.471829 37.82833,11.44865 72.33351,31.94204 109.46413,44.79763 24.93203,-6.65344 50.32494,-21.16371 77.44431,-24.89365 34.99826,-9.01035 70.53373,-17.99059 106.91543,-17.62034 9.3284,34.15078 -20.987,52.72424 -32.1392,79.4108 -0.6821,17.45514 -6.2059,40.97426 12.5554,50.63535 -4.1517,-26.11235 -1.5475,-58.09354 24.8995,-71.45645 13.3733,-21.80633 15.7794,-50.41874 20.419,-75.663599 -24.8717,-6.489559 -49.861,4.06279 -75.20208,3.132149 C 947.64424,95.870121 901.67281,105.88646 855.55653,114.312 824.3608,106.16141 795.66876,89.823885 764.10288,82.291423 744.3633,70.88114 722.40047,66.483188 700.4523,61.644361 634.76636,41.214365 567.07191,26.878697 498.5171,21.30572 c -25.64157,-1.880291 -51.22215,-4.251258 -76.52298,-8.778685 -13.44129,0.0057 -26.84176,0.254117 -40.25545,-0.681533 z"
     id="path3071"
     inkscape:connector-curvature="0" />
  <path
     style="fill:#8dc63f;stroke:none"
     d="M 248.58136,39.946686 C 230.28968,51.18606 230.04515,46.871345 212.14506,59.553463 168.387,86.833648 129.07148,120.52932 85.61727,148.30363 64.949579,163.3768 40.947982,172.8122 15.981873,177.161 c -11.929194,3.26069 21.217053,3.5386 26.209771,5.44124 41.282715,1.34171 82.269236,6.42052 123.406286,10.02311 24.99337,2.30225 50.26754,2.83165 74.94774,7.23107 45.63632,0.76147 90.94917,7.64566 136.64481,6.01967 47.67469,-0.25811 95.52583,1.6256 143.08919,-1.35106 36.39579,-2.71023 72.95019,-4.88763 108.57657,-13.67147 11.76045,-2.51003 45.65368,-16.59235 16.52682,-9.03911 -28.02088,5.03125 -56.76072,2.28366 -84.93159,4.72758 -21.17059,5.75388 -45.37996,-0.15423 -68.17762,2.04329 -53.60323,1.05884 -106.99704,-4.41718 -160.46345,-6.86792 -19.02425,-2.09886 -33.94613,-4.66307 -53.06553,-4.80482 -32.61851,-4.86628 -66.03817,-4.0446 -98.07577,-12.75371 -4.10728,-3.03563 -38.86774,2.1422 -42.48439,-8.17136 13.857,-27.07462 39.36051,-45.76106 61.05352,-66.338319 18.2451,-14.3526 36.34119,-29.593641 56.37066,-41.136134 9.78454,-6.292328 47.41017,-18.186971 18.12974,-15.282502 -7.12459,3.131296 -25.77414,8.844448 -25.15727,6.716131 z"
     id="path3923"
     inkscape:connector-curvature="0"
     sodipodi:nodetypes="ccccccccccccccccccccc" />
  <path
     style="fill:#38632f"
     d="m 801.48197,196.38585 c -32.67576,5.97327 -59.29888,17.94648 -95.73981,23.97966 -104.28809,22.87936 -212.08702,20.28816 -318.22686,19.23629 -46.3165,-4.95177 -93.53676,1.23038 -139.19209,-9.72563 -70.13713,-3.79034 -139.62609,-15.08413 -209.974257,-17.61445 -66.94553,-5.40565 -134.507955,-16.15885 -201.661543,-9.75551 -74.46731,7.80709 -144.63363,42.32129 -199.20309,93.47736 44.3659,-4.1765 84.52707,49.82794 126.80685,20.86772 29.34221,-40.88374 68.43136,-77.36929 120.07603,-85.39282 48.217751,-11.77137 98.115438,13.73714 133.070971,45.65739 14.97332,16.85581 29.022595,51.65762 44.885005,15.60973 25.282053,-39.78535 75.811454,-44.45405 117.851024,-36.58111 167.46675,5.99288 336.46065,7.32712 502.18857,-20.40504 37.31011,-11.17583 96.6668,-18.91689 119.1192,-39.35359 z"
     id="path3081"
     inkscape:connector-curvature="0" />
  <path
     style="fill:#396430"
     d="m 973.98891,198.23552 c 8.11559,2.17797 16.27711,5.10791 22.46925,11.03684 5.80074,4.92796 12.01634,9.5092 17.29324,14.98767 15.9216,21.23893 31.9028,43.42725 38.7791,69.5327 5.5717,19.40916 7.8723,39.63228 8.334,59.78678 -6.0118,-1.15115 -15.7156,1.51078 -19.3854,-2.19342 -2.5296,-30.98494 -4.7509,-63.21642 -19.4231,-91.2445 -6.1233,-12.02073 -12.4871,-24.02121 -21.0937,-34.47734 -7.82431,-10.27493 -17.73901,-18.52395 -26.97339,-27.42873 z"
     id="path3083"
     inkscape:connector-curvature="0" />
  <path
     fill="#cccdcb"
     d=""
     id="path3089" />
</svg>
