<svg xmlns="http://www.w3.org/2000/svg" width="23" height="23" viewBox="0 0 23 23">
    <g fill="#2B74A5" fill-rule="nonzero">
        <path d="M16 19c-1.125 0-2 .902-2 2 0 1.098.924 2 2 2s2-.902 2-2c0-1.098-.924-2-2-2zm0 2.998c-.565 0-.973-.451-.973-1.003 0-.551.462-1.002.973-1.002.511 0 .973.45.973 1.002s-.462 1.003-.973 1.003zM5 19c-1.125 0-2 .902-2 2 0 1.098.924 2 2 2 1.125 0 2-.902 2-2 0-1.098-.924-2-2-2zm0 2.998c-.565 0-.973-.451-.973-1.003 0-.551.462-1.002.973-1.002.565 0 .973.45.973 1.002 0 .557-.457 1.003-.973 1.003zM20.228 0l-.77 3.066H0l3.59 10.785c-1.203.178-2.102 1.21-2.102 2.536 0 1.456 1.09 2.613 2.478 2.613H17.45v-.955H3.966c-.842 0-1.489-.703-1.489-1.61 0-.906.695-1.61 1.489-1.61h13.532l3.52-13.822H23V0h-2.772zm-3.471 13.822H4.612L1.388 4.07h17.798l-2.43 9.753z"/>
        <path d="M6 6h1v5H6zM10 6h1v5h-1zM13 6h1v5h-1z"/>
    </g>
</svg>
